<svg id="courseSvg" viewBox="0 0 800 500" xmlns="http://www.w3.org/2000/svg" style="width:100%; height:100%; cursor:default;"><!-- CONE_POSITIONS:[{"x":80,"y":250,"arrowAngle":0},{"x":720,"y":250,"arrowAngle":0}] --><rect width="800" height="500" fill="white"/><defs><pattern id="grid" width="50" height="50" patternUnits="userSpaceOnUse"><path d="M 50 0 L 0 0 0 50" fill="none" stroke="#e0e0e0" stroke-width="1"/></pattern></defs><rect width="800" height="500" fill="url(#grid)"/><line x1="80" y1="250" x2="720" y2="250" stroke="#2196F3" stroke-width="2" stroke-dasharray="5,5" opacity="0.5"/><g class="cone-group" data-idx="0" style="cursor:grab;"><circle cx="80" cy="250" r="25" fill="white" stroke="#4CAF50" stroke-width="3"/><text x="80" y="256" text-anchor="middle" font-size="18" font-weight="bold" fill="#4CAF50" pointer-events="none">S</text></g><g class="arrow-group" data-idx="0" style="cursor:pointer;"><line x1="105" y1="250" x2="135" y2="250" stroke="#4CAF50" stroke-width="4"/><polygon points="135,250 122.86474508437578,258.8167787843871 122.86474508437578,241.1832212156129" fill="#4CAF50"/></g><rect x="140" y="240" width="80" height="20" fill="white" stroke="#2196F3" rx="3"/><text x="180" y="255" text-anchor="middle" font-size="12" font-weight="bold" fill="#2196F3">40 yards</text><g class="cone-group" data-idx="1" style="cursor:grab;"><circle cx="720" cy="250" r="25" fill="white" stroke="#FF9800" stroke-width="3"/><text x="720" y="256" text-anchor="middle" font-size="18" font-weight="bold" fill="#FF9800" pointer-events="none">1</text></g><g class="arrow-group" data-idx="1" style="cursor:pointer;"><line x1="745" y1="250" x2="775" y2="250" stroke="#FF9800" stroke-width="4"/><polygon points="775,250 762.8647450843758,258.8167787843871 762.8647450843758,241.1832212156129" fill="#FF9800"/></g><rect x="780" y="240" width="80" height="20" fill="white" stroke="#2196F3" rx="3"/><text x="820" y="255" text-anchor="middle" font-size="12" font-weight="bold" fill="#2196F3">5 yards</text></svg>