<svg id="courseSvg" viewBox="0 0 800 500" xmlns="http://www.w3.org/2000/svg" style="width:100%; height:100%; cursor:default;"><!-- CONE_POSITIONS:[{"x":30,"y":253.33419155509785,"arrowAngle":270},{"x":30,"y":30,"arrowAngle":0},{"x":401.2358393408857,"y":30,"arrowAngle":90},{"x":402.0597322348095,"y":452.71627188465504,"arrowAngle":315},{"x":734.9124613800207,"y":31.707003089598352,"arrowAngle":90},{"x":734.0885684860968,"y":470,"arrowAngle":180}] --><rect width="800" height="500" fill="white"/><defs><pattern id="grid" width="50" height="50" patternUnits="userSpaceOnUse"><path d="M 50 0 L 0 0 0 50" fill="none" stroke="#e0e0e0" stroke-width="1"/></pattern></defs><rect width="800" height="500" fill="url(#grid)"/><line x1="30" y1="253.33419155509785" x2="30" y2="30" stroke="#2196F3" stroke-width="2" stroke-dasharray="5,5" opacity="0.5"/><line x1="30" y1="30" x2="401.2358393408857" y2="30" stroke="#2196F3" stroke-width="2" stroke-dasharray="5,5" opacity="0.5"/><line x1="401.2358393408857" y1="30" x2="402.0597322348095" y2="452.71627188465504" stroke="#2196F3" stroke-width="2" stroke-dasharray="5,5" opacity="0.5"/><line x1="402.0597322348095" y1="452.71627188465504" x2="734.9124613800207" y2="31.707003089598352" stroke="#2196F3" stroke-width="2" stroke-dasharray="5,5" opacity="0.5"/><line x1="734.9124613800207" y1="31.707003089598352" x2="734.0885684860968" y2="470" stroke="#2196F3" stroke-width="2" stroke-dasharray="5,5" opacity="0.5"/><g class="cone-group" data-idx="0" style="cursor:grab;"><circle cx="30" cy="253.33419155509785" r="25" fill="white" stroke="#4CAF50" stroke-width="3"/><text x="30" y="259.33419155509785" text-anchor="middle" font-size="18" font-weight="bold" fill="#4CAF50" pointer-events="none">S</text></g><g class="arrow-group" data-idx="0" style="cursor:pointer;"><line x1="29.999999999999996" y1="228.33419155509785" x2="29.99999999999999" y2="198.33419155509785" stroke="#4CAF50" stroke-width="4"/><polygon points="29.99999999999999,198.33419155509785 38.81677878438709,210.46944647072206 21.183221215612896,210.46944647072206" fill="#4CAF50"/></g><rect x="-10.000000000000018" y="143.33419155509785" width="80" height="20" fill="white" stroke="#2196F3" rx="3"/><text x="29.999999999999982" y="158.33419155509785" text-anchor="middle" font-size="12" font-weight="bold" fill="#2196F3">10 yards</text><g class="cone-group" data-idx="1" style="cursor:grab;"><circle cx="30" cy="30" r="25" fill="white" stroke="#FF9800" stroke-width="3"/><text x="30" y="36" text-anchor="middle" font-size="18" font-weight="bold" fill="#FF9800" pointer-events="none">1</text></g><g class="arrow-group" data-idx="1" style="cursor:pointer;"><line x1="55" y1="30" x2="85" y2="30" stroke="#FF9800" stroke-width="4"/><polygon points="85,30 72.86474508437578,38.8167787843871 72.86474508437578,21.183221215612903" fill="#FF9800"/></g><rect x="90" y="20" width="80" height="20" fill="white" stroke="#2196F3" rx="3"/><text x="130" y="35" text-anchor="middle" font-size="12" font-weight="bold" fill="#2196F3">20 yards</text><g class="cone-group" data-idx="2" style="cursor:grab;"><circle cx="401.2358393408857" cy="30" r="25" fill="white" stroke="#FF9800" stroke-width="3"/><text x="401.2358393408857" y="36" text-anchor="middle" font-size="18" font-weight="bold" fill="#FF9800" pointer-events="none">2</text></g><g class="arrow-group" data-idx="2" style="cursor:pointer;"><line x1="401.2358393408857" y1="55" x2="401.2358393408857" y2="85" stroke="#FF9800" stroke-width="4"/><polygon points="401.2358393408857,85 392.4190605564986,72.86474508437578 410.05261812527283,72.86474508437578" fill="#FF9800"/></g><rect x="361.2358393408857" y="120" width="80" height="20" fill="white" stroke="#2196F3" rx="3"/><text x="401.2358393408857" y="135" text-anchor="middle" font-size="12" font-weight="bold" fill="#2196F3">20 yards</text><g class="cone-group" data-idx="3" style="cursor:grab;"><circle cx="402.0597322348095" cy="452.71627188465504" r="25" fill="white" stroke="#FF9800" stroke-width="3"/><text x="402.0597322348095" y="458.71627188465504" text-anchor="middle" font-size="18" font-weight="bold" fill="#FF9800" pointer-events="none">3</text></g><g class="arrow-group" data-idx="3" style="cursor:pointer;"><line x1="419.73740176447313" y1="435.0386023549913" x2="440.95060520006956" y2="413.8253989193949" stroke="#FF9800" stroke-width="4"/><polygon points="440.95060520006956,413.8253989193949 438.6040882244661,428.640724028322 426.1352800911425,416.1719158949984" fill="#FF9800"/></g><rect x="432.77041035346423" y="372.0055937660003" width="80" height="20" fill="white" stroke="#2196F3" rx="3"/><text x="472.77041035346423" y="387.0055937660003" text-anchor="middle" font-size="12" font-weight="bold" fill="#2196F3">25 yards</text><g class="cone-group" data-idx="4" style="cursor:grab;"><circle cx="734.9124613800207" cy="31.707003089598352" r="25" fill="white" stroke="#FF9800" stroke-width="3"/><text x="734.9124613800207" y="37.70700308959835" text-anchor="middle" font-size="18" font-weight="bold" fill="#FF9800" pointer-events="none">4</text></g><g class="arrow-group" data-idx="4" style="cursor:pointer;"><line x1="734.9124613800207" y1="56.70700308959835" x2="734.9124613800207" y2="86.70700308959835" stroke="#FF9800" stroke-width="4"/><polygon points="734.9124613800207,86.70700308959835 726.0956825956335,74.57174817397413 743.7292401644078,74.57174817397413" fill="#FF9800"/></g><rect x="694.9124613800207" y="121.70700308959835" width="80" height="20" fill="white" stroke="#2196F3" rx="3"/><text x="734.9124613800207" y="136.70700308959835" text-anchor="middle" font-size="12" font-weight="bold" fill="#2196F3">20 yards</text><g class="cone-group" data-idx="5" style="cursor:grab;"><circle cx="734.0885684860968" cy="470" r="25" fill="white" stroke="#FF9800" stroke-width="3"/><text x="734.0885684860968" y="476" text-anchor="middle" font-size="18" font-weight="bold" fill="#FF9800" pointer-events="none">5</text></g><g class="arrow-group" data-idx="5" style="cursor:pointer;"><line x1="709.0885684860968" y1="470" x2="679.0885684860968" y2="470" stroke="#FF9800" stroke-width="4"/><polygon points="679.0885684860968,470 691.223823401721,461.1832212156129 691.223823401721,478.8167787843871" fill="#FF9800"/></g><rect x="594.0885684860968" y="460" width="80" height="20" fill="white" stroke="#2196F3" rx="3"/><text x="634.0885684860968" y="475" text-anchor="middle" font-size="12" font-weight="bold" fill="#2196F3">40 yards</text></svg>