<svg id="sws_symbol" xmlns="http://www.w3.org/2000/svg" viewBox="0 0 617 617"><style>.st0{fill:none;stroke:#000;stroke-width:35;stroke-miterlimit:10}</style><path class="st0" d="M253.4 254.4h109v109h-109zM253.4 199.9v54.5h-54.5c-30.1 0-54.5-24.4-54.5-54.5s24.4-54.5 54.5-54.5 54.5 24.4 54.5 54.5zM471.4 199.9c0 30.1-24.4 54.5-54.5 54.5h-54.5v-54.5c0-30.1 24.4-54.5 54.5-54.5s54.5 24.4 54.5 54.5zM471.4 417.9c0 30.1-24.4 54.5-54.5 54.5s-54.5-24.4-54.5-54.5v-54.5h54.5c30.1 0 54.5 24.4 54.5 54.5zM253.4 417.9c0 30.1-24.4 54.5-54.5 54.5s-54.5-24.4-54.5-54.5 24.4-54.5 54.5-54.5h54.5v54.5z"/><path d="M521.1 597.9H94.7c-41.7 0-75.8-34.1-75.8-75.8V95.7C18.9 54 53 19.9 94.7 19.9h426.5c41.7 0 75.8 34.1 75.8 75.8v426.5c-.1 41.6-34.2 75.7-75.9 75.7z" fill="none" stroke="#3c3cce" stroke-width="35" stroke-miterlimit="10"/></svg>